<?xml version="1.0" standalone="no"?>
<!DOCTYPE svg PUBLIC "-//W3C//DTD SVG 20010904//EN"
 "http://www.w3.org/TR/2001/REC-SVG-20010904/DTD/svg10.dtd">
<svg version="1.0" xmlns="http://www.w3.org/2000/svg"
 width="260.000000pt" height="260.000000pt" viewBox="0 0 260.000000 260.000000"
 preserveAspectRatio="xMidYMid meet">
<metadata>
Created by potrace 1.11, written by Peter Selinger 2001-2013
</metadata>
<g transform="translate(0.000000,260.000000) scale(0.100000,-0.100000)"
fill="#000000" stroke="none">
<path d="M309 1548 c-24 -50 -63 -119 -86 -154 l-41 -64 56 0 c50 0 54 1 37
14 -16 12 -18 19 -10 52 10 38 11 39 60 42 49 3 51 2 68 -33 20 -42 21 -62 5
-68 -7 -3 22 -6 65 -6 l78 -1 -24 33 c-14 17 -52 85 -86 149 -35 65 -66 120
-70 122 -4 3 -27 -36 -52 -86z m36 -48 l16 -30 -31 0 c-16 0 -30 2 -30 5 0 7
23 55 26 55 2 0 10 -13 19 -30z"/>
<path d="M560 1628 c0 -4 5 -10 10 -13 6 -4 10 -60 10 -135 0 -112 -2 -130
-17 -139 -13 -8 25 -10 131 -8 l149 2 13 45 c16 53 11 62 -16 28 -37 -48 -129
-75 -158 -46 -15 15 -17 244 -2 253 23 14 6 20 -55 20 -36 0 -65 -3 -65 -7z"/>
<path d="M999 1548 c-24 -50 -63 -119 -86 -154 l-41 -64 56 0 c50 0 54 1 37
14 -16 12 -18 19 -10 52 10 38 11 39 60 42 49 3 51 2 68 -33 20 -42 21 -62 5
-68 -7 -3 49 -6 125 -6 136 -1 137 -1 118 18 -25 25 -33 68 -29 151 l3 66 115
-123 c63 -67 118 -122 123 -123 4 0 7 46 7 103 1 117 11 176 36 194 15 11 8
13 -45 13 l-63 0 23 -19 c19 -15 24 -30 27 -87 l3 -69 -87 88 -87 87 -54 0
-53 0 16 -25 c14 -21 16 -43 11 -124 -5 -101 -17 -141 -42 -141 -18 0 -41 33
-114 172 -35 65 -66 120 -70 122 -4 3 -27 -36 -52 -86z m36 -48 l16 -30 -31 0
c-16 0 -30 2 -30 5 0 7 23 55 26 55 2 0 10 -13 19 -30z"/>
<path d="M260 1268 c0 -4 5 -10 10 -13 12 -8 13 -244 1 -264 -15 -23 -39 -4
-47 36 -12 66 -20 68 -37 7 -20 -69 -16 -74 58 -74 96 0 125 46 125 194 0 80
3 97 18 105 20 12 24 12 -61 14 -37 1 -67 -1 -67 -5z"/>
<path d="M509 1188 c-24 -50 -63 -119 -86 -154 l-41 -64 56 0 c50 0 54 1 37
14 -16 12 -18 19 -10 52 10 38 11 39 60 42 49 3 51 2 68 -33 20 -42 21 -62 5
-68 -7 -3 22 -6 65 -6 l78 -1 -24 33 c-14 17 -52 85 -86 149 -35 65 -66 120
-70 122 -4 3 -27 -36 -52 -86z m36 -48 l16 -30 -31 0 c-16 0 -30 2 -30 5 0 7
23 55 26 55 2 0 10 -13 19 -30z"/>
<path d="M809 1257 c-55 -29 -83 -76 -83 -137 0 -62 28 -108 84 -138 38 -20
55 -23 110 -19 36 2 78 10 93 18 26 12 28 16 22 48 -12 62 -20 66 -39 18 -27
-71 -84 -87 -138 -38 -27 24 -32 36 -36 88 -6 83 11 130 54 151 47 22 83 8
109 -43 11 -22 21 -42 23 -44 5 -9 11 7 18 45 6 41 6 41 -35 57 -60 24 -129
22 -182 -6z"/>
<path d="M1060 1268 c0 -4 5 -10 10 -13 6 -4 10 -60 10 -135 0 -112 -2 -130
-17 -139 -14 -8 1 -10 56 -11 58 0 72 3 63 12 -17 17 -16 141 1 136 6 -2 27
-36 46 -76 l34 -72 58 0 57 0 -48 74 c-37 55 -58 77 -86 88 l-36 15 51 44 c28
24 65 52 83 62 18 9 31 17 28 18 -35 3 -130 3 -130 -1 0 -4 5 -11 12 -18 10
-10 2 -22 -35 -60 l-47 -47 0 52 c0 29 5 55 10 58 23 14 6 20 -55 20 -36 0
-65 -3 -65 -7z"/>
<path d="M1464 1266 c-35 -15 -64 -51 -64 -78 0 -53 43 -86 132 -102 40 -7 68
-29 68 -52 0 -25 -39 -54 -73 -54 -43 0 -75 24 -95 69 l-15 36 -13 -30 c-24
-56 -19 -71 30 -84 99 -25 183 -8 224 44 53 67 5 131 -111 151 -37 6 -67 26
-67 45 0 5 9 18 20 29 36 36 87 22 120 -33 l19 -31 11 28 c5 15 10 33 10 41 0
32 -136 47 -196 21z"/>
<path d="M1793 1259 c-67 -33 -102 -107 -83 -177 11 -42 60 -95 103 -111 83
-31 185 5 224 79 29 54 29 84 1 140 -42 83 -154 114 -245 69z m122 -5 c29 -11
45 -60 45 -134 0 -74 -16 -123 -45 -134 -62 -24 -107 17 -113 104 -2 33 -1 75
2 95 11 58 59 88 111 69z"/>
<path d="M2094 1248 c30 -43 15 -239 -20 -265 -15 -11 -9 -13 44 -13 61 0 62
0 43 19 -25 25 -33 68 -29 151 l3 66 115 -123 c63 -67 118 -122 123 -123 4 0
7 46 7 103 1 117 11 176 36 194 15 11 8 13 -45 13 l-63 0 23 -19 c19 -15 24
-30 27 -87 l3 -69 -87 88 -87 87 -54 0 c-54 0 -54 0 -39 -22z"/>
</g>
</svg>
