<svg id="bbc80536-3e02-40cb-8030-3f052c229fd1" data-name="logo" xmlns="http://www.w3.org/2000/svg" viewBox="0 0 478.48 39.86"><title>logo</title><path d="M-58.42-97.72v-.68a11.33,11.33,0,0,0,4.27-3.8A60.64,60.64,0,0,0-48.91-111l13-25.58h.48l13.57,25.3A94.58,94.58,0,0,0-15.75-101c1.2,1.57,2.29,2.43,3.28,2.58l0,.68c-1.06-.06-2.17-.1-3.33-.13s-2.72,0-4.66,0q-3.63,0-6,0c-1.61,0-3.19.07-4.74.13l0-.68a3.79,3.79,0,0,0,2-.74,2.1,2.1,0,0,0,.59-1.64,9.89,9.89,0,0,0-.72-3,47.16,47.16,0,0,0-2.17-4.91l-2-4h-11.7l-.94,2a47.13,47.13,0,0,0-2.16,5,10.39,10.39,0,0,0-.7,3.26,3.62,3.62,0,0,0,1.11,2.75,5.16,5.16,0,0,0,3.09,1.27l0,.68c-1-.06-2-.1-3-.13s-2.35,0-4,0-2.92,0-3.87,0S-57.56-97.78-58.42-97.72Zm23.93-16.88L-39.42-125l-4.92,10.43Z" transform="translate(58.42 136.59)" fill="#fff"/><path d="M-10.76-97.72v-.74a4.24,4.24,0,0,0,3.25-2.64q.85-2.15.86-9.91v-19.37a5,5,0,0,0-.78-3,4.68,4.68,0,0,0-2.65-1.52v-.79c1.27.08,2.57.13,3.91.17s2.73.06,4.17.06,3,0,4.39-.06,2.83-.09,4.25-.17v.79A4.16,4.16,0,0,0,4-133.5a5.13,5.13,0,0,0-.82,3.12v18.81q0,7.93,1.35,9.79c.9,1.23,2.73,1.85,5.51,1.85a17.78,17.78,0,0,0,9.46-2.73,28.2,28.2,0,0,0,8.22-8.18l.82.32L24.8-97.89H1.59l-1.92,0-2,0c-1.53,0-3,0-4.39.06S-9.44-97.79-10.76-97.72Z" transform="translate(58.42 136.59)" fill="#fff"/><path d="M27.77-97.72v-.68a11.35,11.35,0,0,0,4.28-3.8A61.56,61.56,0,0,0,37.29-111l13-25.58h.49l13.57,25.3A92.91,92.91,0,0,0,70.45-101c1.2,1.57,2.29,2.43,3.28,2.58l0,.68c-1.06-.06-2.17-.1-3.33-.13s-2.72,0-4.66,0q-3.63,0-6,0c-1.6,0-3.18.07-4.73.13l0-.68a3.8,3.8,0,0,0,2-.74,2.1,2.1,0,0,0,.59-1.64,9.89,9.89,0,0,0-.72-3,49.4,49.4,0,0,0-2.17-4.91l-2-4H41l-.94,2a47.13,47.13,0,0,0-2.16,5,10.39,10.39,0,0,0-.7,3.26,3.62,3.62,0,0,0,1.11,2.75,5.16,5.16,0,0,0,3.08,1.27l0,.68c-1-.06-2-.1-3-.13s-2.35,0-3.95,0-2.92,0-3.87,0S28.64-97.78,27.77-97.72ZM51.71-114.6,46.78-125,41.85-114.6Z" transform="translate(58.42 136.59)" fill="#fff"/><path d="M82.73-115q0,8.39,1.36,11.84a7.82,7.82,0,0,0,4.79,4.7v.74c-1.42-.06-2.69-.1-3.82-.13s-2.15,0-3,0c-1.08,0-2.22,0-3.42,0s-2.45.07-3.75.13l0-.68a8,8,0,0,0,4.43-5q1.32-3.72,1.32-11.56v-11.45q0-4.56-.85-6.11a5.15,5.15,0,0,0-3.09-2.3v-.74l4.61.09,3.1,0,2.79,0,2.79,0q4.21,4.71,9.43,10.07t13.09,13.08v-6q0-9.21-1.32-12.25a7.8,7.8,0,0,0-4.77-4.3v-.73l3.74.13c1.13,0,2.14,0,3,0,1.1,0,2.25,0,3.47,0s2.5-.08,3.84-.13v.68a8.75,8.75,0,0,0-4.59,4.42q-1.27,2.88-1.27,12.18v21.19l-1.28.4q-7.81-8.44-15.45-16.48T82.73-129Z" transform="translate(58.42 136.59)" fill="#fff"/><path d="M138.15-98.4l3.34-11.78.82.05a26.7,26.7,0,0,0,2.08,8.53q1.44,2.84,3.67,2.83,2.38,0,3.27-2.94t.9-13.35v-14.5a6.15,6.15,0,0,0-.91-3.66,5.07,5.07,0,0,0-3-1.7v-.79q.48,0,1.47.06,4.88.17,6.94.17t7.68-.2l1.25,0v.79a4.77,4.77,0,0,0-2.88,1.51,5.57,5.57,0,0,0-.83,3.42v11.79c0,.38,0,1.1,0,2.17s0,1.93,0,2.59q0,8.39-3.41,12.49t-10.44,4.11a35.69,35.69,0,0,1-5.6-.4A18.8,18.8,0,0,1,138.15-98.4Z" transform="translate(58.42 136.59)" fill="#fff"/><path d="M163.1-97.72v-.68a11.42,11.42,0,0,0,4.28-3.8,61.56,61.56,0,0,0,5.24-8.81l13-25.58h.48l13.57,25.3A92.43,92.43,0,0,0,205.78-101q1.8,2.36,3.27,2.58l0,.68c-1.06-.06-2.17-.1-3.33-.13s-2.71,0-4.66,0q-3.63,0-6,0c-1.61,0-3.18.07-4.73.13l0-.68a3.79,3.79,0,0,0,2-.74,2.07,2.07,0,0,0,.59-1.64,9.89,9.89,0,0,0-.72-3,49,49,0,0,0-2.16-4.91l-2-4h-11.7l-.93,2a45.51,45.51,0,0,0-2.17,5,10.62,10.62,0,0,0-.69,3.26,3.61,3.61,0,0,0,1.1,2.75,5.21,5.21,0,0,0,3.09,1.27l0,.68c-1-.06-2-.1-3-.13s-2.35,0-4,0-2.91,0-3.87,0S164-97.78,163.1-97.72ZM187-114.6,182.11-125l-4.93,10.43Z" transform="translate(58.42 136.59)" fill="#fff"/><path d="M246.51-102a27.15,27.15,0,0,1-8,3.93A32.91,32.91,0,0,1,229-96.78a26.59,26.59,0,0,1-8.44-1.32,22.18,22.18,0,0,1-7-3.78,18.26,18.26,0,0,1-5.15-6.53,20.31,20.31,0,0,1-1.67-8.52,17.88,17.88,0,0,1,6.3-14.23q6.3-5.43,16.62-5.43a30.53,30.53,0,0,1,8.18,1.08,29.56,29.56,0,0,1,7.48,3.23l-2.8,9.09-.8-.11q-.87-5.55-3.74-8.4a10.26,10.26,0,0,0-7.59-2.85,10.74,10.74,0,0,0-9.18,4.59q-3.35,4.59-3.34,12.75,0,8.73,3.33,13.56a10.69,10.69,0,0,0,9.33,4.83,10.17,10.17,0,0,0,7.92-3.18q2.91-3.16,4-9.88l.82-.06Z" transform="translate(58.42 136.59)" fill="#fff"/><path d="M248.37-97.72v-.74a4.26,4.26,0,0,0,3.28-2.7c.59-1.46.88-4.75.88-9.85v-19.37a4.84,4.84,0,0,0-.81-3,4.82,4.82,0,0,0-2.67-1.53v-.79c1.3.08,2.61.13,3.94.17s2.68.06,4.07.06,2.95,0,4.37-.06,2.82-.09,4.22-.17v.79A4.11,4.11,0,0,0,263-133.5a5.06,5.06,0,0,0-.83,3.12v11.73l9.07-8.08a14.29,14.29,0,0,0,2.62-2.94,5,5,0,0,0,1-2.55,2.46,2.46,0,0,0-.77-1.9,3.61,3.61,0,0,0-2.15-.85v-.74c1.59.1,3,.17,4.14.21s2.21.07,3.11.07,2.16,0,3.47-.07,2.91-.11,4.78-.21v.68a19.42,19.42,0,0,0-4.89,2.3,68.7,68.7,0,0,0-7.24,5.6l-9.74,8.25a17.45,17.45,0,0,1,8.08,1.68,17.15,17.15,0,0,1,6,5.74c.72,1.08,1.7,2.66,2.95,4.76q3.93,6.72,6.69,8.24l0,.63-2.58,0h-8.53l-2.66,0q-1.43-2.13-6.09-13c-.17-.37-.29-.66-.37-.85a15.48,15.48,0,0,0-2.31-4,3.15,3.15,0,0,0-2.34-1.22,1.83,1.83,0,0,0-1.7.86,6.09,6.09,0,0,0-.51,2.91V-111q0,7.49.9,9.72a4.51,4.51,0,0,0,3.35,2.83l0,.74c-1.25-.06-2.55-.1-3.91-.13s-3.17,0-5.42,0-3.8,0-5.05,0S249.54-97.78,248.37-97.72Z" transform="translate(58.42 136.59)" fill="#fff"/><path d="M290.39-100.5l3.18-10.79h.71q1.07,6.09,4.54,9.31a12.63,12.63,0,0,0,8.91,3.21,11,11,0,0,0,7.07-2,6.84,6.84,0,0,0,2.56-5.65,4.59,4.59,0,0,0-1.82-3.91q-1.83-1.37-8.37-2.66a51.23,51.23,0,0,1-7.7-1.95,11.87,11.87,0,0,1-3.64-2.11,9.56,9.56,0,0,1-2.43-3.34,9.91,9.91,0,0,1-.85-4.08,10.19,10.19,0,0,1,4.76-8.74q4.76-3.33,12.63-3.33a38.42,38.42,0,0,1,7.74.78,32.53,32.53,0,0,1,7.11,2.31l-2.67,9.21h-.76a14.68,14.68,0,0,0-4-7.65,10.22,10.22,0,0,0-7.18-2.55,9.94,9.94,0,0,0-6.23,1.84,5.67,5.67,0,0,0-2.41,4.7,4.76,4.76,0,0,0,.49,2.16,5.39,5.39,0,0,0,1.49,1.78c1,.81,3.49,1.56,7.45,2.24,1.59.28,2.82.51,3.68.68q6.08,1.19,9,3.87a9.22,9.22,0,0,1,2.89,7.09,11.51,11.51,0,0,1-5.09,9.65q-5.08,3.75-13.27,3.75a46.24,46.24,0,0,1-9.58-1A33.07,33.07,0,0,1,290.39-100.5Z" transform="translate(58.42 136.59)" fill="#fff"/><path d="M330-116.81a19,19,0,0,1,1.71-8.09,19.62,19.62,0,0,1,5.06-6.59,20.61,20.61,0,0,1,6.79-3.81,25.57,25.57,0,0,1,8.25-1.29,25.82,25.82,0,0,1,8.4,1.28,20,20,0,0,1,6.73,3.88,19.94,19.94,0,0,1,5.14,6.64,18.54,18.54,0,0,1,1.72,8,18.46,18.46,0,0,1-1.74,8,21.28,21.28,0,0,1-5.23,6.79,20,20,0,0,1-6.7,3.91,24.54,24.54,0,0,1-8.2,1.36,24.77,24.77,0,0,1-8.4-1.41,20.9,20.9,0,0,1-6.93-4,19.77,19.77,0,0,1-4.89-6.61A19.2,19.2,0,0,1,330-116.81Zm21.87,18.1a9,9,0,0,0,8.22-4.45q2.69-4.44,2.69-13.6t-2.68-13.55a9,9,0,0,0-8.23-4.41q-5.58,0-8.21,4.37c-1.76,2.9-2.64,7.44-2.64,13.59s.88,10.73,2.65,13.66A8.89,8.89,0,0,0,351.9-98.71Z" transform="translate(58.42 136.59)" fill="#fff"/><path d="M382.35-115q0,8.39,1.36,11.84a7.78,7.78,0,0,0,4.78,4.7v.74c-1.41-.06-2.69-.1-3.82-.13s-2.15,0-3,0c-1.08,0-2.22,0-3.42,0s-2.45.07-3.75.13l0-.68a8.08,8.08,0,0,0,4.44-5q1.31-3.72,1.31-11.56v-11.45q0-4.56-.85-6.11a5.09,5.09,0,0,0-3.09-2.3v-.74l4.61.09,3.1,0,2.79,0,2.79,0q4.23,4.71,9.43,10.07t13.09,13.08v-6q0-9.21-1.31-12.25a7.82,7.82,0,0,0-4.78-4.3v-.73l3.74.13c1.13,0,2.15,0,3,0,1.1,0,2.26,0,3.47,0s2.5-.08,3.84-.13v.68a8.75,8.75,0,0,0-4.59,4.42q-1.27,2.88-1.27,12.18v21.19l-1.28.4q-7.82-8.44-15.45-16.48T382.35-129Z" transform="translate(58.42 136.59)" fill="#fff"/></svg>